# xmcd
#
# Track frame offsets:
# 150
# 22256
# 42433
# 67471
# 90922
# 107892
# 125159
# 149738
# 164498
# 187181
# 216173
#
# Disc length: 3258 seconds
#
#
# Revision: 0
# Processed by: cddbd v1.5.1PL2 Copyright (c) Steve Scherf et al.
# Submitted via: FreeRIP 2.945 
#
DISCID=b80cb80b
DTITLE=Liz Stringer - Soon
DYEAR=2006
DGENRE=
TTITLE0=Like A Roll Of Thunder
TTITLE1=One More Time
TTITLE2=Do You Love Me Honey
TTITLE3=The Devil And My Daughter
TTITLE4=I Guess You'll Never Know
TTITLE5=Cold Hearted Lover
TTITLE6=Thats All I Can Do
TTITLE7=Sinking Like A Stone
TTITLE8=The Willow Tree
TTITLE9=Ain't No Healer
TTITLE10=Special
EXTD=
EXTT0=
EXTT1=
EXTT2=
EXTT3=
EXTT4=
EXTT5=
EXTT6=
EXTT7=
EXTT8=
EXTT9=
EXTT10=
PLAYORDER=
